<?xml version="1.0" encoding="UTF-8"?>
<svg width="33" height="32" viewBox="0 0 33 32" xmlns="http://www.w3.org/2000/svg" xmlns:xlink="http://www.w3.org/1999/xlink">
    <path transform="scale(1.1858)" fill="#04256C" fill-rule="evenodd" d="M0 11.367c0 6.215 4.471 11.366 10.965 11.366 6.459 0 10.93-5.15 10.93-11.367C21.895 4.769 17.505 0 10.965 0 4.39 0 0 4.768 0 11.367zm4.22 0c0-4.13 2.49-8.131 6.745-8.131 4.22 0 6.71 4.001 6.71 8.13 0 3.875-2.064 8.132-6.71 8.132-4.681 0-6.745-4.257-6.745-8.132z"/>
    <path transform="translate(25.493 20.403) scale(1.1858)" fill="#04256C" d="M6.33 9.78V8.264H2.443C4 6.722 6.028 4.848 6.028 2.81 6.028.922 4.856 0 3.043 0 2.075 0 1.078.248.216.689l.151 1.598c.624-.414 1.393-.772 2.198-.772.775 0 1.556.414 1.556 1.295C4.121 4.573.886 7.3 0 8.168V9.78h6.33"/>
</svg>
