<?xml version="1.0" encoding="UTF-8"?>
<svg width="25" height="43" viewBox="0 0 25 43" xmlns="http://www.w3.org/2000/svg" xmlns:xlink="http://www.w3.org/1999/xlink">
    <path fill="#1D9F9E" id="path0_fill" d="M12.522 0C5.469 0 0 5.61 0 12.169c0 5.811 3.876 8.941 3.876 8.941.384.33.287.503.014.773 0 0-3.89 3.463-3.89 8.819C0 38.043 6 43 12.522 43 19.814 43 25 37.197 25 30.788c0-5.516-3.735-8.772-3.735-8.772-.526-.496-.525-.578 0-1.032 0 0 3.735-3.072 3.735-8.815C25 5.68 19.673 0 12.522 0zM9.735 6.313c.356 0 .67.18.851.451.182-.271.496-.451.853-.451.41 0 .762.237.924.578.161-.341.513-.578.922-.578.41 0 .762.236.924.576a1.02 1.02 0 0 1 .925-.576c.562 0 1.017.445 1.017.996 0 .55-.455.997-1.018.997a1.02 1.02 0 0 1-.924-.577 1.02 1.02 0 0 1-.924.577c-.409 0-.76-.237-.922-.578a1.02 1.02 0 0 1-.924.578c-.357 0-.671-.18-.853-.452a1.009 1.009 0 0 1-.273.276c.266.18.44.48.44.82a.99.99 0 0 1-.435.816.99.99 0 0 1 .436.817.99.99 0 0 1-.436.817c.08.056.152.123.213.198.187-.23.474-.376.796-.376.374 0 .7.197.876.49.178-.293.504-.49.878-.49.369 0 .692.192.87.48.179-.288.502-.48.87-.48.563 0 1.02.445 1.02.995s-.457.997-1.02.997c-.368 0-.691-.192-.87-.48a1.02 1.02 0 0 1-.87.48c-.374 0-.7-.196-.878-.49a1.02 1.02 0 0 1-.876.49c-.322 0-.61-.147-.796-.376a1.01 1.01 0 0 1-.218.2c.266.179.44.478.44.819a.99.99 0 0 1-.44.82c.266.18.44.48.44.82a.99.99 0 0 1-.44.82c.107.073.2.165.272.272a1.02 1.02 0 0 1 .854-.455c.41 0 .762.237.924.578.161-.34.513-.578.922-.578.41 0 .762.236.924.577a1.02 1.02 0 0 1 .925-.577c.562 0 1.017.447 1.017.997s-.455.996-1.018.996a1.02 1.02 0 0 1-.924-.576 1.02 1.02 0 0 1-.924.576c-.41 0-.76-.236-.922-.578a1.019 1.019 0 0 1-.924.578 1.02 1.02 0 0 1-.85-.449 1.023 1.023 0 0 1-.854.455 1.006 1.006 0 0 1-1.018-.996c0-.34.175-.64.441-.82a.988.988 0 0 1-.44-.82c0-.34.174-.64.44-.82a.99.99 0 0 1-.44-.82c0-.34.174-.64.44-.82a.99.99 0 0 1-.44-.82.99.99 0 0 1 .435-.817.99.99 0 0 1-.436-.817.99.99 0 0 1 .436-.817.99.99 0 0 1-.436-.817c0-.34.175-.64.441-.82a.99.99 0 0 1-.44-.82c0-.55.454-.996 1.017-.996zm0 18.559c.356 0 .67.18.851.451.182-.272.496-.451.853-.451.41 0 .762.236.924.577.161-.34.513-.578.922-.578.41 0 .762.237.924.577a1.02 1.02 0 0 1 .925-.576c.562 0 1.017.446 1.017.997 0 .55-.455.995-1.018.995a1.02 1.02 0 0 1-.924-.576 1.02 1.02 0 0 1-.924.576c-.409 0-.76-.237-.922-.578a1.02 1.02 0 0 1-.924.578c-.357 0-.671-.18-.853-.451a1.01 1.01 0 0 1-.272.275c.265.18.44.48.44.82a.989.989 0 0 1-.437.817c.264.18.437.478.437.817a.989.989 0 0 1-.437.817c.081.055.153.122.214.197.187-.229.474-.376.796-.376.374 0 .7.197.876.49.178-.293.504-.49.878-.49.369 0 .692.192.87.48.179-.288.502-.48.87-.48.563 0 1.02.447 1.02.997s-.457.996-1.02.996c-.368 0-.691-.192-.87-.48a1.02 1.02 0 0 1-.87.48c-.374 0-.7-.197-.878-.49a1.02 1.02 0 0 1-.876.49c-.322 0-.61-.147-.796-.376a1.01 1.01 0 0 1-.218.2c.266.18.44.48.44.82a.99.99 0 0 1-.439.82c.265.18.44.48.44.819a.99.99 0 0 1-.441.82c.108.073.2.165.272.273a1.02 1.02 0 0 1 .854-.455c.41 0 .762.237.924.578.161-.34.513-.578.922-.578.41 0 .762.236.924.577a1.02 1.02 0 0 1 .925-.577c.562 0 1.017.446 1.017.996s-.455.997-1.018.997a1.02 1.02 0 0 1-.924-.576 1.02 1.02 0 0 1-.924.576c-.409 0-.76-.237-.922-.578a1.02 1.02 0 0 1-.924.578c-.356 0-.668-.179-.85-.449a1.023 1.023 0 0 1-.854.454 1.007 1.007 0 0 1-1.018-.997c0-.34.175-.64.441-.82a.99.99 0 0 1-.44-.819c0-.34.173-.64.439-.82a.99.99 0 0 1-.44-.82c0-.34.175-.64.441-.82a.988.988 0 0 1-.44-.819.99.99 0 0 1 .436-.818.989.989 0 0 1-.437-.817c0-.339.173-.637.437-.817a.989.989 0 0 1-.437-.817c0-.34.174-.64.44-.82a.99.99 0 0 1-.44-.82c0-.55.455-.996 1.018-.996z"/>
</svg>
